<?xml version="1.0" standalone="no"?><!DOCTYPE svg PUBLIC "-//W3C//DTD SVG 1.1//EN" "http://www.w3.org/Graphics/SVG/1.1/DTD/svg11.dtd"><svg t="1668437558209" class="icon" viewBox="0 0 1024 1024" version="1.1" xmlns="http://www.w3.org/2000/svg" p-id="6921" xmlns:xlink="http://www.w3.org/1999/xlink" width="200" height="200"><path d="M113 489.5C113 268.9 291.6 90 512 90s399 178.9 399 399.5S732.4 889 512 889 113 710.1 113 489.5z" fill="#333F50" p-id="6922"></path><path d="M194.2 607.6l0.5 1.8 0.2 1.8-0.1 1.8-0.4 1.7-0.6 1.6-0.9 1.5-1.1 1.4-1.3 1.2-1.5 1-1.7 0.8-1.8 0.5-1.8 0.2-1.8-0.1-1.7-0.4-1.7-0.6-1.5-0.9-1.4-1.1-1.2-1.3-1-1.5-0.8-1.7-1-2.9-1-2.9-0.9-2.9-0.9-2.9-0.9-2.9-0.9-2.9-0.9-2.9-0.8-2.9-0.8-2.9-0.8-2.9-0.8-2.9-0.7-2.9-0.7-2.9-0.7-2.9-0.7-2.9-0.6-2.9-0.6-2.9-0.6-2.9-0.6-2.9-0.5-2.9-0.5-2.9-0.5-2.9-0.5-2.9-0.4-3-0.4-3-0.4-3-0.4-3-0.4-3-0.3-3-0.3-3-0.3-3-0.3-3-0.2-3-0.2-3-0.2-3-0.2-3-0.1-3-0.1-3-0.1-3-0.1-3v-15l0.1-3 0.1-3 0.1-3 0.1-3 0.2-3 0.2-3 0.2-3 0.2-3 0.3-3 0.3-3 0.3-3 0.3-3 0.4-2.9 0.4-2.9 0.4-2.9 0.4-2.9 0.4-2.9 0.5-2.9 0.5-2.9 0.5-2.9 0.5-2.9 0.6-2.9 0.6-2.9 0.6-2.9 0.6-2.9 0.7-2.9 0.7-2.9 0.7-2.9 0.7-2.9 0.7-2.9 0.8-2.9 0.8-2.9 0.8-2.9 0.8-2.9 0.9-2.9 0.9-2.9 0.9-2.8 0.9-2.8 1-2.8 1-2.8 1-2.8 1-2.8 1-2.8 1.1-2.8 1.1-2.8 1.1-2.8 1.1-2.8 1.2-2.8 1.2-2.8 1.2-2.8 1.2-2.8 1.3-2.7 1.3-2.7 2.6-5.4 1.4-2.8 1.4-2.7 1.4-2.7 1.4-2.7 1.4-2.7 1.5-2.6 1.5-2.6 1.5-2.6 1.5-2.6 1.5-2.6 1.6-2.6 1.6-2.6 1.6-2.5 1.6-2.5 1.6-2.5 1.6-2.5 1.7-2.5 1.7-2.5 1.7-2.5 1.7-2.4 1.7-2.4 1.8-2.4 1.8-2.4 1.8-2.4 1.8-2.4 1.8-2.4 1.9-2.3 1.9-2.3 1.9-2.3 1.9-2.3 1.9-2.3 1.9-2.3 2-2.2 2-2.2 2-2.2 2-2.2 2-2.2 2-2.2 2.1-2.1 2.1-2.1 2.1-2.1 2.1-2.1 2.1-2.1 2.1-2.1 2.2-2 2.2-2 2.2-2 2.2-2 2.2-2 2.2-2 2.3-1.9 2.3-1.9 2.3-1.9 2.3-1.9 2.3-1.9 2.3-1.9 2.3-1.8 2.4-1.8 2.4-1.8 2.4-1.8 2.4-1.8 2.4-1.7 2.4-1.7 2.4-1.7 2.5-1.7 2.5-1.7 2.5-1.6 2.5-1.6 2.5-1.6 2.5-1.6 2.5-1.6 2.6-1.5 2.6-1.5 2.6-1.5 2.6-1.5 2.6-1.5 2.6-1.4 2.6-1.4 2.6-1.4 2.7-1.4 2.7-1.4 2.7-1.3 2.7-1.3 2.7-1.3 2.7-1.3 2.7-1.3 2.7-1.2 2.8-1.2 2.8-1.2 2.8-1.2 2.8-1.2 2.8-1.1 2.8-1.1 2.8-1.1 2.8-1.1 2.8-1 2.8-1 2.9-1 5.7-1.9 3.7-0.6 3.5 0.6 3.2 1.6 2.6 2.5 1.7 3.3 0.6 3.6-0.6 3.5-1.6 3.2-2.5 2.5-3.3 1.7-5.4 1.8-2.7 0.9-2.7 1-2.7 1-2.7 1-2.6 1-2.6 1-2.6 1.1-2.6 1.1-2.6 1.1-2.6 1.1-2.6 1.1-2.6 1.2-2.6 1.2-2.5 1.2-2.5 1.2-2.5 1.2-2.5 1.3-2.5 1.3-2.5 1.3-2.5 1.3-2.5 1.3-2.5 1.4-2.4 1.4-2.4 1.4-2.4 1.4-2.4 1.4-2.4 1.5-2.4 1.5-2.4 1.5-2.4 1.5-2.3 1.5-2.3 1.5-2.3 1.6-2.3 1.6-2.3 1.6-2.3 1.6-2.3 1.6-2.3 1.7-2.2 1.7-2.2 1.7-2.2 1.7-2.2 1.7-2.2 1.7-2.2 1.8-2.2 1.8-2.1 1.8-2.1 1.8-2.1 1.8-2.1 1.8-2.1 1.9-2.1 1.9-2.1 1.9-2 1.9-2 1.9-2 1.9-2 2-2 2-2 2-2 2-1.9 2-1.9 2-1.9 2-1.9 2.1-1.9 2.1-1.9 2.1-1.8 2.1-1.8 2.1-1.8 2.1-1.8 2.2-1.8 2.2-1.8 2.2-1.7 2.2-1.7 2.2-1.7 2.2-1.7 2.2-1.7 2.3-1.7 2.3-1.6 2.3-1.6 2.3-1.6 2.3-1.6 2.3-1.6 2.3-1.5 2.4-1.5 2.4-1.5 2.4-1.5 2.4-1.5 2.4-1.5 2.4-1.4 2.4-1.7 2.8-1.4 2.5-1.4 2.5-1.4 2.5-1.3 2.5-1.3 2.5-1.3 2.5-1.3 2.5-1.2 2.5-2.5 5.2-1.2 2.6-1.2 2.6-1.2 2.6-1.1 2.6-1.1 2.6-1.1 2.6-1.1 2.6-1.1 2.6-1 2.6-1 2.6-1 2.6-1 2.6-0.9 2.7-0.9 2.7-0.9 2.7-0.9 2.7-0.9 2.7-0.8 2.7-0.8 2.7-0.8 2.7-0.8 2.7-0.7 2.7-0.7 2.7-0.7 2.7-0.7 2.7-0.7 2.7-0.6 2.7-0.6 2.7-0.6 2.7-0.6 2.7-0.6 2.7-0.5 2.7-0.5 2.7-0.5 2.7-0.5 2.8-0.4 2.8-0.4 2.8-0.4 2.8-0.4 2.8-0.4 2.8-0.3 2.8-0.3 2.8-0.3 2.8-0.3 2.8-0.2 2.8-0.2 2.8-0.2 2.8-0.2 2.8-0.2 2.8-0.1 2.8-0.1 2.8-0.1 2.8-0.1 2.8v14l0.1 2.8 0.1 2.8 0.1 2.8 0.1 2.8 0.2 2.8 0.2 2.8 0.2 2.8 0.2 2.8 0.2 2.8 0.3 2.8 0.3 2.8 0.3 2.8 0.3 2.8 0.4 2.8 0.4 2.8 0.4 2.8 0.4 2.8 0.4 2.8 0.5 2.8 0.5 2.8 0.5 2.8 0.5 2.8 0.6 2.8 0.6 2.8 0.6 2.7 0.6 2.7 0.6 2.7 0.7 2.7 0.7 2.7 0.7 2.7 0.7 2.7 0.8 2.7 0.8 2.7 0.8 2.7 0.8 2.7 0.8 2.7 0.9 2.7 0.9 2.7 0.9 2.7 1.1 1.9zM181 653c0-7.7 6.3-14 14-14s14 6.3 14 14-6.3 14-14 14-14-6.3-14-14zM468.8 178.7c-0.4-0.6-1.1-1-1.9-0.9l-8.3 1-5.5-6.3c-0.5-0.6-1.3-0.8-2-0.6-0.7 0.2-1.3 0.8-1.4 1.5l-1.6 8.2-7.7 3.3c-0.7 0.3-1.1 1-1.2 1.7 0 0.7 0.4 1.5 1 1.8l7.3 4.1 0.8 8.3c0.1 0.7 0.6 1.4 1.3 1.7 0.7 0.3 1.5 0.1 2-0.4l6.2-5.7 8.2 1.8c0.3 0.1 0.6 0.1 0.9 0 0.4-0.1 0.8-0.3 1-0.7 0.5-0.6 0.6-1.4 0.3-2.1l-3.5-7.6 4.3-7.2c0.2-0.5 0.2-1.3-0.2-1.9zM805.8 297.3c-0.2-0.7-0.8-1.2-1.6-1.4l-8.2-1.2-3.7-7.6c-0.3-0.7-1-1.1-1.8-1.1s-1.4 0.4-1.8 1.1l-3.7 7.6-8.2 1.2c-0.7 0.1-1.4 0.6-1.6 1.4-0.2 0.7 0 1.5 0.5 2l6 5.9-1.4 8.3c-0.1 0.8 0.2 1.5 0.8 1.9 0.6 0.4 1.4 0.5 2.1 0.2l7.4-3.9 7.4 3.9c0.3 0.2 0.6 0.2 0.9 0.2 0.4 0 0.8-0.1 1.2-0.4 0.6-0.4 0.9-1.2 0.8-1.9l-1.4-8.3 6-5.9c0.3-0.5 0.5-1.3 0.3-2zM550.8 826.9c-0.2-0.7-0.8-1.2-1.6-1.3l-8.2-1.2-3.7-7.3c-0.3-0.7-1-1.1-1.8-1.1s-1.4 0.4-1.8 1.1l-3.7 7.3-8.2 1.2c-0.7 0.1-1.4 0.6-1.6 1.3-0.2 0.7 0 1.5 0.5 2l6 5.7-1.4 8.1c-0.1 0.7 0.2 1.5 0.8 1.9 0.6 0.4 1.4 0.5 2.1 0.1l7.4-3.8 7.4 3.8c0.3 0.1 0.6 0.2 0.9 0.2 0.4 0 0.8-0.1 1.2-0.4 0.6-0.4 0.9-1.2 0.8-1.9l-1.4-8.1 6-5.7c0.3-0.4 0.5-1.2 0.3-1.9z" fill="#FFFFFF" p-id="6923"></path><path d="M247.4 576.2c0-0.7-0.4-1.4-1.1-1.8l-7.4-3.8-1.1-8.3c-0.1-0.7-0.6-1.4-1.3-1.6-0.7-0.2-1.5-0.1-2 0.5l-6 5.9-8.2-1.6c-0.7-0.1-1.5 0.2-1.9 0.7-0.5 0.6-0.5 1.4-0.2 2.1l3.8 7.5-4 7.3c-0.4 0.7-0.3 1.5 0.1 2.1 0.4 0.6 1.2 0.9 1.9 0.8l8.3-1.3 5.7 6.1c0.2 0.2 0.5 0.4 0.8 0.5 0.4 0.1 0.8 0.1 1.2 0 0.7-0.2 1.2-0.8 1.4-1.6l1.4-8.3 7.6-3.6c0.5-0.1 1-0.8 1-1.6zM800.8 654.3c-0.2-0.7-0.8-1.2-1.6-1.4l-8.2-1.2-3.7-7.6c-0.3-0.7-1-1.1-1.8-1.1s-1.4 0.4-1.8 1.1l-3.7 7.6-8.2 1.2c-0.7 0.1-1.4 0.6-1.6 1.4-0.2 0.7 0 1.5 0.5 2l6 5.9-1.4 8.3c-0.1 0.8 0.2 1.5 0.8 1.9 0.6 0.4 1.4 0.5 2.1 0.2l7.4-3.9 7.4 3.9c0.3 0.2 0.6 0.2 0.9 0.2 0.4 0 0.8-0.1 1.2-0.4 0.6-0.4 0.9-1.2 0.8-1.9l-1.4-8.3 6-5.9c0.3-0.5 0.5-1.3 0.3-2z" fill="#FFFFFF" p-id="6924"></path><path d="M308 507.5C308 387.4 405.4 290 525.5 290S743 387.4 743 507.5 645.6 725 525.5 725 308 627.6 308 507.5z" fill="#FACC7E" p-id="6925"></path><path d="M711.8 395l5.2 8.6c6.7 12.4 12.2 25.4 16.5 39.1l0.5 2-0.8 0.6-2.6 1.7-2.6 1.7-2.6 1.6-2.6 1.6-2.6 1.6-2.6 1.5-2.6 1.5-2.6 1.5-2.7 1.5-2.7 1.4-2.7 1.4-2.7 1.4-2.7 1.4-2.7 1.3-2.7 1.3-2.7 1.3-2.8 1.3-2.8 1.2-2.8 1.2-2.8 1.2-2.8 1.1-2.8 1.1-2.8 1.1-2.8 1.1-2.8 1-2.8 1-2.8 1-2.9 1-2.9 0.9-2.9 0.9-2.9 0.9-2.9 0.8-2.9 0.8-2.9 0.8-2.9 0.8-2.9 0.7-2.9 0.7-2.9 0.7-2.9 0.6-2.9 0.6-3 0.6-3 0.6-3 0.5-3 0.5-3 0.5-3 0.5-3 0.4-3 0.4-3 0.4-3 0.3-3 0.3-3 0.3-3 0.3-3 0.2-3 0.2-3 0.2-3 0.1-3 0.1-3 0.1-3 0.1h-9l-3-0.1-3-0.1-3-0.1-3-0.2-3-0.2-3-0.2-3-0.2-3-0.3-3-0.3-3-0.3-3-0.4-3-0.4-3-0.4-3-0.4-3-0.5-3-0.5-3-0.5-3-0.6-3-0.6-3-0.6-3-0.7-3-0.7-3-0.7-5.9-1.5-7.8-3.5-6.1-5.5-4.1-7.1-1.8-8.1 0.8-8.5 3.5-7.8 5.5-6.1 7-4.1 8-1.8 8.5 0.8 5.1 1.3 2.5 0.6 2.5 0.6 2.5 0.5 2.5 0.5 2.5 0.5 2.5 0.5 2.5 0.4 2.5 0.4 2.5 0.4 2.5 0.4 2.5 0.3 2.5 0.3 2.5 0.3 2.5 0.3 2.5 0.2 2.5 0.2 2.5 0.2 2.5 0.2 2.5 0.1 2.5 0.1 2.5 0.1 2.5 0.1h12.5l2.5-0.1 2.5-0.1 2.5-0.1 2.5-0.1 2.5-0.2 2.5-0.2 2.5-0.2 2.5-0.2 2.5-0.3 2.5-0.3 2.5-0.3 2.5-0.3 2.5-0.4 2.5-0.4 2.5-0.4 2.5-0.4 2.5-0.4 2.5-0.5 2.5-0.5 2.4-0.5 2.4-0.5 2.4-0.6 2.4-0.6 2.4-0.6 2.4-0.6 2.4-0.7 2.4-0.7 2.4-0.7 2.4-0.7 2.4-0.8 2.4-0.8 2.4-0.8 2.4-0.8 2.4-0.8 2.4-0.9 2.3-0.9 2.3-0.9 2.3-0.9 2.3-1 2.3-1 2.3-1 2.3-1 2.3-1 2.3-1.1 2.3-1.1 2.3-1.1 2.3-1.1 2.2-1.2 2.2-1.2 2.2-1.2 2.2-1.2 2.2-1.2 2.2-1.3 2.2-1.3 2.2-1.3 2.2-1.3 2.1-1.4 2.1-1.4 2.1-1.4 2.1-1.4 2.1-1.4 2.1-1.5 1.4-1.1zM309.6 481.1l2.2 0.5 7.3 4.5 4 3.4 2 1.6 2 1.6 2 1.6 2 1.6 2 1.5 2 1.5 2.1 1.5 2.1 1.5 2.1 1.5 2.1 1.4 2.1 1.4 2.1 1.4 2.1 1.4 2.1 1.4 2.2 1.3 2.2 1.3 2.2 1.3 2.2 1.3 2.2 1.2 2.2 1.2 2.2 1.2 2.2 1.2 2.2 1.2 2.2 1.1 2.3 1.1 2.3 1.1 2.3 1.1 2.3 1 2.3 1 2.3 1 2.3 1 2.3 1 2.3 0.9 2.3 0.9 2.3 0.9 2.4 0.9 2.4 0.8 2.4 0.8 2.4 0.8 2.4 0.8 2.4 0.8 2.4 0.7 2.4 0.7 2.4 0.7 2.4 0.7 2.4 0.6 2.4 0.6 2.4 0.6 2.4 0.6 2.4 0.5 2.4 0.5 2.5 0.5 2.5 0.5 2.5 0.5 2.5 0.4 2.5 0.4 2.5 0.4 2.5 0.4 2.5 0.3 2.5 0.3 2.5 0.3 2.5 0.3 2.5 0.2 2.5 0.2 2.5 0.2 2.5 0.2 2.5 0.1 2.5 0.1 2.5 0.1 2.5 0.1h12.5l2.5-0.1 2.5-0.1 2.5-0.1 2.5-0.1 2.5-0.2 2.5-0.2 2.5-0.2 2.5-0.2 2.5-0.3 2.5-0.3 2.5-0.3 2.5-0.3 2.5-0.4 2.5-0.4 2.5-0.4 2.5-0.4 2.5-0.5 2.5-0.5 2.5-0.5 2.5-0.5 2.5-0.6 2.5-0.6 2.4-0.6 4.3-0.7h4.2l4.1 0.6 3.9 1.3 3.7 1.8 3.3 2.4 3 2.9 2.5 3.3 2 3.7 1.4 4.1 0.7 4.3v4.2l-0.6 4.1-1.3 3.9-1.8 3.7-2.4 3.3-2.9 3-3.3 2.5-3.7 2-4.1 1.4-3.1 0.8-3 0.7-3 0.7-3 0.6-3 0.6-3 0.6-3 0.6-3 0.5-3 0.5-3 0.5-3 0.4-3 0.4-3 0.4-3 0.3-3 0.3-3 0.3-3 0.3-3 0.2-3 0.2-3 0.2-3 0.1-3 0.1-3 0.1-3 0.1h-9l-3-0.1-3-0.1-3-0.1-3-0.1-3-0.2-3-0.2-3-0.2-3-0.3-3-0.3-3-0.3-3-0.3-3-0.4-3-0.4-3-0.4-3-0.5-3-0.5-3-0.5-3-0.5-3-0.6-2.9-0.6-2.9-0.6-2.9-0.7-2.9-0.7-2.9-0.7-2.9-0.7-2.9-0.8-2.9-0.8-2.9-0.8-2.9-0.9-2.9-0.9-2.9-0.9-2.9-0.9-2.9-1-2.8-1-2.8-1-2.8-1-2.8-1.1-2.8-1.1-2.8-1.1-2.8-1.2-2.8-1.2-2.8-1.2-2.8-1.2-2.7-1.3-2.7-1.3-2.7-1.3-2.7-1.3-2.7-1.4-2.7-1.4-2.7-1.4-2.7-1.4-2.7-1.5-2.6-1.5-2.6-1.5-2.6-1.5-2.6-1.6-2.6-1.6-2.6-1.6-2.6-1.7-2.5-1.7-2.5-1.7-1.4-1-2.8-18.5c-0.7-7.3-1.1-14.7-1.1-22.2s0.4-14.9 1.1-22.2v-4zM712.3 617.9l-6.5 10.8c-23.4 34.7-56.7 62.3-95.7 78.8l-10.9 4-0.7 0.1-3 0.3-3 0.2-3 0.2-3 0.2-3 0.1-3 0.1-3 0.1-3 0.1h-9l-3-0.1-3-0.1-3-0.1-3-0.1-3-0.2-3-0.2-3-0.2-3-0.3-3-0.3-3-0.3-3-0.3-3-0.4-3-0.4-3-0.4-3-0.5-3-0.5-3-0.5-3-0.6-3-0.6-3-0.6-3-0.6-3-0.7-3-0.7-3-0.7-3-0.8-3-0.8-3-0.8-2.9-0.8-2.9-0.9-2.9-0.9-2.9-0.9-2.9-1-2.9-1-2.9-1-2.9-1-5.7-2.1-7.4-4.3-5.4-6.2-3.3-7.5-0.9-8.2 1.8-8.3 4.3-7.4 6.2-5.4 7.5-3.3 8.2-0.9 8.3 1.8 4.9 1.9 2.4 0.9 2.4 0.8 2.4 0.8 2.4 0.8 2.4 0.8 2.4 0.7 2.4 0.7 2.4 0.7 2.5 0.7 2.5 0.6 2.5 0.6 2.5 0.6 2.5 0.6 2.5 0.6 2.5 0.5 2.5 0.5 2.5 0.5 2.5 0.5 2.5 0.4 2.5 0.4 2.5 0.4 2.5 0.4 2.5 0.3 2.5 0.3 2.5 0.3 2.5 0.3 2.5 0.2 2.5 0.2 2.5 0.2 2.5 0.2 2.5 0.1 2.5 0.1 2.5 0.1 2.5 0.1h12.5l2.5-0.1 2.5-0.1 2.5-0.1 2.5-0.1 2.5-0.2 2.5-0.2 2.5-0.2 2.5-0.2 2.5-0.3 2.5-0.3 2.5-0.3 2.5-0.3 2.5-0.4 2.5-0.4 2.5-0.4 2.5-0.4 2.5-0.5 2.5-0.5 2.5-0.5 2.5-0.5 2.4-0.5 2.4-0.6 2.4-0.6 2.4-0.6 2.4-0.6 2.4-0.7 2.4-0.7 2.4-0.7 2.4-0.7 2.4-0.8 2.4-0.8 2.4-0.8 2.4-0.8 2.4-0.8 2.4-0.9 2.4-0.9 2.3-0.9 2.3-0.9 2.3-1 2.3-1 2.3-1 2.3-1 2.3-1.1 2.3-1.1 2.3-1.1 2.3-1.1 2.3-1.1 2.3-1.2 2.3-1.2 2.2-1.2 2.2-1.2 2.2-1.3 2.2-1.3 2.2-1.3 2.2-1.3 2.2-1.4 2.1-1.5zM581.6 297.2l8.4 2.2c20.4 6.4 39.6 15.6 56.9 27.4l1 0.8-2.1 1.1-2.8 1.4-2.8 1.3-2.8 1.3-2.8 1.3-2.8 1.3-2.8 1.2-2.8 1.2-2.8 1.2-2.8 1.1-2.9 1.1-2.9 1.1-2.9 1.1-2.9 1-2.9 1-2.9 1-2.9 0.9-2.9 0.9-2.9 0.9-2.9 0.9-2.9 0.8-2.9 0.8-2.9 0.8-2.9 0.7-2.9 0.7-2.9 0.7-3 0.7-3 0.6-3 0.6-3 0.6-3 0.5-3 0.5-3 0.5-3 0.5-3 0.4-3 0.4-3 0.4-3 0.3-3 0.3-3 0.3-3 0.3-3 0.2-3 0.2-3 0.2-3 0.1-3 0.1-3 0.1-3 0.1h-9l-3-0.1-3-0.1-3-0.1-3-0.1-3-0.2-3-0.2-3-0.2-3-0.3-3-0.3-3-0.3-3-0.3-3-0.4-3-0.4-3-0.4-3-0.5-3-0.5-3-0.5-3-0.5-3-0.6-3-0.6-3-0.6-3-0.7-3-0.7-2.9-0.7-2.9-0.7-2.9-0.8-2.9-0.8-2.9-0.8-2.9-0.9-2.9-0.9-2.9-0.9-2.9-0.9-2.9-1-2.9-1-2.9-1-2.9-1.1-2.9-1.1-2.9-1.1-0.8-0.3 0.7-0.6c16.1-13.3 34.2-24.3 53.7-32.6l8.8-3.2 1 0.2 2.5 0.5 2.5 0.5 2.5 0.4 2.5 0.4 2.5 0.4 2.5 0.4 2.5 0.4 2.5 0.3 2.5 0.3 2.5 0.3 2.5 0.3 2.5 0.2 2.5 0.2 2.5 0.2 2.5 0.2 2.5 0.1 2.5 0.1 2.5 0.1 2.5 0.1h10l2.5-0.1 2.5-0.1 2.5-0.1 2.5-0.1 2.5-0.1 2.5-0.2 2.5-0.2 2.5-0.2 2.5-0.2 2.5-0.3 2.5-0.3 2.5-0.3 2.5-0.3 2.5-0.4 2.5-0.4 2.5-0.4 2.5-0.4 2.5-0.5 2.5-0.5 2.5-0.5 2.5-0.5 2.5-0.6 2.5-0.6 2.4-0.6 2.4-0.6 2.4-0.6 2.4-0.7 2.4-0.7 2.4-0.7 2.1-0.5z" fill="#F6A824" p-id="6926"></path><path d="M737 560.4l7.2 9.5c42.6 59.1 58.3 112.2 36.1 142.2-24.7 33.3-90.4 30.1-170-2l-3-1.3 3.7-1.3c58.5-24.8 104-74.4 123-135.7l3-11.4z m-394.1-244c17.7 0.4 37.8 3.7 59.7 9.8l2.1 0.7-16.6 12.4c-37.6 31-64.6 74.4-74.7 124l-2.1 13.9-9.9-14.5c-32.5-51.1-42.6-96.1-22.9-122.7 12.4-16.8 35-24.3 64.4-23.6z" fill="#F97B6E" p-id="6927"></path><path d="M318.9 295.6c5.6-0.1 11.3 0 17.2 0.3 24.5 1.3 51.6 6.5 80.3 15.3l7 2.3-9.7 5.3-11 7.7-0.9-0.3c-19.5-5.5-37.5-8.7-53.4-9.5-29-1.3-51.3 5.5-63.6 21.5-39.2 51.3 39.3 177.2 175.3 281.2s278.1 146.7 317.3 95.4c22.1-28.8 6.9-81.3-34.9-140.2l-6.1-8.2 5-19.5 1.1-7.5 0.1 0.2c72.2 90.7 99.5 180.7 61.1 230.9-55.8 73-229.4 34.1-387.7-86.9S174.9 405.4 230.7 332.4c18.3-24 49.3-35.9 88.2-36.8z" fill="#FDEBCB" p-id="6928"></path><path d="M631 236c0-15.5 12.5-28 28-28s28 12.5 28 28-12.5 28-28 28-28-12.5-28-28zM713 555c0-15.5 12.5-28 28-28s28 12.5 28 28-12.5 28-28 28-28-12.5-28-28zM290 670c0-15.5 12.5-28 28-28s28 12.5 28 28-12.5 28-28 28-28-12.5-28-28zM352 856c0-15.5 12.5-28 28-28s28 12.5 28 28-12.5 28-28 28-28-12.5-28-28zM472 733.5c0-12.4 10.1-22.5 22.5-22.5s22.5 10.1 22.5 22.5-10.1 22.5-22.5 22.5-22.5-10.1-22.5-22.5zM401 312.5c0-11.3 9.2-20.5 20.5-20.5s20.5 9.2 20.5 20.5-9.2 20.5-20.5 20.5-20.5-9.2-20.5-20.5z" fill="#D6DCE5" p-id="6929"></path></svg>